<?xml version="1.0" standalone="no"?>
<!DOCTYPE svg PUBLIC "-//W3C//DTD SVG 20010904//EN"
 "http://www.w3.org/TR/2001/REC-SVG-20010904/DTD/svg10.dtd">
<svg version="1.0" xmlns="http://www.w3.org/2000/svg"
 width="347.000000pt" height="339.000000pt" viewBox="0 0 347.000000 339.000000"
 preserveAspectRatio="xMidYMid meet">

<g transform="translate(0.000000,339.000000) scale(0.100000,-0.100000)"
fill="#000000" stroke="none">
<path d="M1853 3315 c-48 -21 -132 -103 -159 -156 -31 -62 -64 -183 -64 -235
0 -45 -10 -54 -60 -54 -46 0 -190 -28 -285 -55 -99 -29 -264 -104 -286 -131
-22 -27 -74 -44 -133 -44 -51 0 -58 -3 -95 -40 -22 -22 -44 -40 -51 -40 -18 0
-107 -148 -127 -211 -10 -32 -21 -59 -24 -59 -3 0 -50 82 -104 183 -55 100
-118 214 -141 253 -23 39 -45 81 -49 95 -15 46 -108 211 -122 216 -9 4 -33
-12 -60 -40 l-46 -45 69 -122 c38 -66 86 -151 107 -188 22 -37 45 -83 52 -102
7 -19 40 -82 73 -140 33 -58 95 -167 137 -243 89 -160 93 -132 -35 -272 -45
-49 -91 -103 -101 -120 -22 -34 -24 -82 -7 -120 12 -27 152 -135 255 -198 85
-51 115 -50 187 9 31 26 58 45 60 43 2 -2 18 -28 36 -57 29 -47 31 -55 18 -70
-8 -9 -53 -62 -99 -117 -47 -55 -102 -124 -123 -152 -21 -29 -43 -56 -50 -60
-7 -5 -80 -88 -164 -186 -161 -189 -177 -218 -152 -277 7 -17 26 -41 42 -53
28 -23 28 -24 17 -73 -10 -45 -9 -56 10 -99 l21 -48 -25 -27 c-14 -14 -25 -34
-25 -43 0 -26 33 -20 64 12 26 27 31 28 89 24 52 -4 69 -1 107 19 44 24 45 24
75 6 38 -23 71 -23 112 0 17 9 114 111 214 227 100 116 184 211 188 212 3 1
22 -24 41 -57 149 -254 283 -487 315 -549 45 -85 57 -93 185 -112 175 -25 713
6 791 46 98 51 89 170 -16 211 -42 16 -52 16 -172 0 -108 -14 -410 -35 -520
-36 -30 0 -35 6 -89 98 -31 53 -84 142 -117 197 -33 55 -79 136 -102 180 -23
44 -63 116 -89 159 l-47 79 38 41 c21 22 48 49 61 59 13 11 34 36 46 56 13 20
44 59 70 87 l46 52 62 -26 c51 -21 80 -26 148 -27 47 0 106 4 131 8 l46 8 64
-78 c35 -43 71 -85 81 -93 26 -23 163 -192 191 -236 14 -21 55 -73 91 -114
117 -134 283 -335 314 -381 48 -71 76 -91 129 -96 38 -4 58 1 95 21 l48 25 34
-20 c27 -16 49 -20 101 -18 60 2 68 0 95 -26 27 -26 32 -27 45 -14 14 13 12
18 -14 43 l-30 28 20 37 c21 39 25 95 9 137 -8 20 -7 32 3 48 36 55 28 112
-22 166 -18 19 -52 64 -76 100 -42 63 -140 190 -298 384 -43 53 -99 126 -124
163 -52 77 -109 151 -132 173 -13 12 -106 129 -242 305 -4 6 -11 31 -15 55
l-7 45 59 -65 c90 -99 167 -169 190 -176 32 -8 82 21 244 145 227 172 231 175
304 215 91 51 150 112 189 194 26 57 31 78 31 147 1 184 -92 303 -250 321 -99
11 -275 -44 -341 -108 l-32 -31 -23 28 c-28 36 -106 85 -134 85 -16 0 -28 11
-41 37 -15 33 -33 46 -123 91 -58 29 -139 60 -179 70 l-74 17 6 67 c12 141
-25 259 -104 333 -88 83 -183 112 -256 80z m142 -55 c85 -41 151 -127 162
-211 l5 -38 -63 21 c-114 36 -281 33 -383 -8 -17 -7 -18 -4 -13 24 16 78 55
141 118 187 70 52 108 57 174 25z m-95 -431 l0 -181 -32 7 c-18 4 -61 20 -96
36 -79 36 -92 62 -92 189 0 49 3 90 8 90 4 0 39 9 77 20 39 10 85 19 103 19
l32 1 0 -181z m200 153 l55 -19 3 -110 c2 -80 -1 -113 -10 -120 -13 -10 -190
-83 -202 -83 -3 0 -6 82 -6 181 l0 182 53 -6 c29 -4 77 -15 107 -25z m-37
-414 c-38 -129 -52 -151 -95 -161 -21 -5 -55 -5 -75 0 -42 9 -59 35 -107 167
-23 60 -24 67 -8 61 9 -4 44 -14 76 -22 62 -15 119 -8 191 23 17 7 33 13 37
14 3 0 -5 -37 -19 -82z m1162 8 c59 -27 77 -46 104 -107 46 -103 33 -242 -30
-328 -96 -134 -348 -214 -463 -148 -73 41 -124 163 -110 261 4 22 20 76 36
118 40 105 107 168 211 199 40 11 77 22 82 24 37 12 125 3 170 -19z m-2263
-429 c146 -105 145 -115 -18 -283 -64 -65 -162 -170 -217 -231 -120 -136 -121
-137 -233 -57 -137 96 -143 118 -62 216 28 35 61 72 73 83 29 26 165 192 189
228 28 44 88 108 111 117 30 13 49 4 157 -73z m298 -221 l12 -114 -83 -101
c-46 -55 -106 -128 -132 -161 -27 -33 -52 -60 -56 -60 -4 0 -20 27 -36 60 -33
69 -38 54 66 165 108 115 133 163 115 226 -6 23 -2 29 46 62 29 19 54 36 54
36 1 1 7 -50 14 -113z m-151 -32 c1 -25 -368 -429 -400 -437 -12 -3 -32 -2
-45 3 -23 9 -23 10 29 66 28 32 83 92 121 133 38 42 117 125 175 184 109 111
118 115 120 51z m351 -120 c30 -20 60 -42 65 -48 6 -7 58 -45 118 -85 59 -40
114 -83 122 -94 18 -26 19 -61 2 -79 -25 -26 -232 -266 -257 -297 l-25 -32
-185 128 c-102 70 -202 141 -221 157 l-36 29 50 66 c62 82 203 250 229 274 32
27 77 21 138 -19z m891 -13 c38 -41 219 -285 217 -291 -2 -5 -47 -40 -100 -77
-53 -37 -146 -102 -205 -144 -59 -41 -113 -79 -120 -82 -12 -7 -168 173 -211
244 -30 50 -28 89 6 121 35 33 315 226 344 238 22 8 57 4 69 -9z m340 -428
c41 -54 83 -111 93 -128 11 -16 45 -62 77 -102 l58 -72 -77 -55 c-118 -84
-353 -246 -356 -246 -5 0 -120 144 -150 187 -15 23 -59 76 -97 118 -38 41 -69
79 -69 83 0 4 41 37 91 72 50 36 146 104 213 152 66 47 126 87 132 87 6 1 44
-43 85 -96z m-1731 -35 c0 -4 -9 -13 -20 -20 -11 -7 -20 -19 -20 -28 0 -15 89
-175 126 -225 12 -16 40 -66 61 -110 22 -45 46 -90 54 -102 11 -19 9 -25 -15
-57 l-27 -36 -127 87 c-294 201 -313 215 -308 229 3 8 61 80 128 159 109 128
124 143 136 128 6 -9 12 -20 12 -25z m368 -107 c67 -46 122 -87 122 -91 0 -4
-21 -28 -47 -54 l-48 -46 -17 22 c-19 25 -158 257 -158 265 0 6 9 0 148 -96z
m-663 -211 c3 -5 99 -73 213 -151 114 -78 209 -144 211 -146 3 -2 -25 -34 -61
-71 -36 -37 -101 -107 -143 -157 -42 -49 -86 -98 -97 -107 -28 -25 -71 -22
-105 6 -15 12 -92 67 -171 121 -148 101 -173 127 -156 170 11 29 280 345 293
345 6 0 12 -4 16 -10z m2401 -132 c60 -79 122 -162 137 -185 15 -24 31 -43 35
-43 4 0 16 -14 26 -30 26 -44 14 -80 -42 -127 -96 -80 -273 -204 -301 -209
-33 -7 -80 29 -127 98 -32 48 -181 232 -238 292 -20 22 -36 43 -36 46 0 3 57
45 128 93 70 49 165 115 211 148 47 32 88 59 91 59 4 0 56 -64 116 -142z
m-2540 -439 c41 -28 74 -56 74 -60 0 -13 -45 -29 -80 -29 -76 0 -129 69 -104
135 8 21 20 16 110 -46z m2732 -42 c3 -40 -1 -51 -24 -72 -15 -14 -38 -28 -51
-31 -25 -7 -97 15 -95 29 2 13 146 126 157 123 6 -1 11 -24 13 -49z"/>
</g>
</svg>
