<?xml version="1.0" standalone="no"?>
<!DOCTYPE svg PUBLIC "-//W3C//DTD SVG 20010904//EN"
 "http://www.w3.org/TR/2001/REC-SVG-20010904/DTD/svg10.dtd">
<svg version="1.0" xmlns="http://www.w3.org/2000/svg"
 width="338.000000pt" height="224.000000pt" viewBox="0 0 338.000000 224.000000"
 preserveAspectRatio="xMidYMid meet">

<g transform="translate(0.000000,224.000000) scale(0.100000,-0.100000)"
fill="#000000" stroke="none">
<path d="M2244 2054 c-260 -43 -473 -217 -553 -452 -11 -34 -21 -69 -21 -77 0
-8 -3 -15 -7 -15 -3 0 -79 37 -167 81 -292 148 -690 351 -775 396 -80 43 -111
48 -111 20 0 -7 62 -45 138 -84 226 -117 576 -295 751 -383 l163 -82 -6 -51
c-4 -29 -17 -88 -30 -132 -13 -44 -39 -135 -57 -203 -35 -130 -39 -137 -124
-197 -28 -19 -170 -126 -190 -142 -5 -5 -133 -100 -283 -212 -194 -146 -272
-210 -272 -224 0 -14 5 -18 18 -15 11 3 190 134 399 292 210 157 383 286 385
286 2 0 2 -15 0 -34 -6 -48 23 -66 110 -66 l68 0 0 -168 c0 -117 4 -172 12
-180 9 -9 69 -12 210 -12 l198 0 0 -87 c0 -49 4 -94 8 -101 7 -9 96 -12 413
-10 l404 3 5 300 5 300 87 175 c81 162 89 182 99 265 23 193 -26 374 -145 532
-115 152 -275 248 -465 279 -103 17 -160 16 -267 -2z m306 -49 c36 -7 105 -34
155 -60 232 -118 375 -348 375 -602 0 -134 -13 -180 -104 -358 l-81 -160 -5
-290 -5 -290 -367 -3 -368 -3 0 85 c0 46 -3 91 -6 100 -5 14 -33 16 -210 16
l-204 0 0 173 c0 121 -4 177 -12 185 -7 7 -43 12 -90 12 -74 0 -78 1 -77 23 1
47 25 87 79 127 30 23 139 105 243 182 103 77 187 146 187 153 0 8 -79 53
-176 101 l-175 87 6 39 c38 226 246 427 498 482 82 18 256 19 337 1z m-701
-642 c75 -36 138 -68 141 -71 3 -2 -6 -12 -19 -21 -14 -9 -42 -29 -62 -46 -20
-16 -47 -38 -60 -47 -48 -34 -165 -122 -201 -151 -21 -17 -41 -28 -44 -24 -7
6 5 52 60 247 20 69 36 137 36 153 0 15 3 27 7 27 4 0 68 -30 142 -67z"/>
<path d="M2294 1899 c-18 -5 -46 -25 -63 -44 -27 -31 -31 -43 -31 -92 0 -53 3
-59 40 -95 36 -34 47 -38 91 -38 75 0 120 33 140 104 8 32 7 47 -6 82 -27 70
-98 104 -171 83z m82 -45 c27 -7 54 -54 54 -94 0 -44 -47 -90 -92 -90 -49 0
-88 36 -95 87 -5 37 -2 46 25 73 30 30 61 37 108 24z"/>
<path d="M2607 1708 c-6 -20 23 -58 44 -58 25 0 25 32 1 53 -22 20 -39 22 -45
5z"/>
<path d="M2792 1688 c-16 -16 -15 -48 2 -48 22 0 60 35 52 48 -9 15 -39 15
-54 0z"/>
<path d="M2679 1632 c0 -4 -2 -24 -4 -45 -4 -35 -2 -38 18 -35 12 1 28 -1 35
-5 18 -12 34 3 28 26 -3 12 -1 26 5 33 7 8 6 15 -2 20 -16 10 -79 15 -80 6z"/>
<path d="M2602 1528 c-19 -19 -15 -48 7 -48 21 0 54 38 45 52 -8 12 -38 10
-52 -4z"/>
<path d="M2765 1519 c-7 -11 31 -59 47 -59 18 0 20 32 3 50 -20 22 -40 26 -50
9z"/>
<path d="M2321 1436 c-31 -32 -35 -33 -73 -24 -32 7 -45 6 -56 -5 -12 -12 -11
-20 7 -56 l21 -41 -19 -41 c-29 -59 -20 -73 44 -65 49 5 54 4 79 -24 45 -51
76 -37 76 33 0 28 6 35 43 53 28 13 42 26 42 39 0 13 -15 28 -42 43 -39 21
-43 27 -43 62 0 29 -5 42 -19 50 -26 13 -23 15 -60 -24z m43 -77 c3 -15 17
-31 32 -38 l27 -12 -31 -19 c-22 -14 -32 -27 -32 -45 0 -28 -12 -32 -30 -10
-7 8 -28 15 -47 15 -32 0 -35 2 -28 23 9 29 9 48 0 70 -6 14 -2 17 27 17 23 0
42 7 54 21 10 11 19 17 20 12 1 -4 5 -20 8 -34z"/>
<path d="M2678 1263 c-29 -18 -36 -37 -18 -48 15 -9 102 35 97 49 -6 18 -50
17 -79 -1z"/>
<path d="M2786 1252 c-10 -16 36 -93 53 -90 19 5 17 42 -4 75 -16 23 -39 30
-49 15z"/>
<path d="M2630 1157 c0 -36 24 -77 45 -77 20 0 23 21 9 50 -7 14 -15 33 -18
43 -10 31 -36 20 -36 -16z"/>
<path d="M2790 1115 c-7 -8 -22 -15 -34 -15 -27 0 -46 -18 -39 -36 15 -39 122
8 123 54 0 17 -35 15 -50 -3z"/>
<path d="M274 1731 c-64 -39 -96 -115 -79 -191 16 -73 116 -140 188 -126 76
14 147 97 147 171 0 47 -32 106 -73 136 -33 24 -50 29 -96 29 -37 0 -66 -6
-87 -19z m140 -36 c59 -28 85 -115 52 -173 -50 -90 -191 -76 -224 23 -35 107
70 198 172 150z"/>
<path d="M703 1505 c-6 -17 23 -55 42 -55 21 0 24 25 5 48 -21 26 -38 28 -47
7z"/>
<path d="M936 1481 c-10 -11 -16 -27 -12 -36 5 -15 9 -14 36 2 32 18 36 46 9
51 -8 1 -23 -6 -33 -17z"/>
<path d="M760 1433 c0 -9 10 -27 22 -41 l23 -24 -28 -20 c-28 -21 -37 -58 -13
-58 7 0 26 10 41 22 l28 22 19 -27 c11 -15 26 -27 33 -27 25 0 27 22 5 52
l-22 30 27 28 c43 45 13 70 -33 28 l-24 -23 -23 28 c-27 30 -55 36 -55 10z"/>
<path d="M697 1282 c-20 -22 -22 -52 -4 -52 24 1 60 37 54 54 -8 21 -30 20
-50 -2z"/>
<path d="M905 1270 c-9 -14 22 -60 40 -60 23 0 27 18 9 45 -17 26 -38 32 -49
15z"/>
<path d="M346 1170 l-43 -40 -54 10 c-42 8 -56 7 -67 -3 -11 -12 -9 -23 14
-69 l26 -54 -27 -53 c-23 -46 -25 -56 -13 -68 12 -11 24 -12 67 -2 l53 11 42
-41 c64 -62 77 -57 91 37 6 39 11 45 55 67 27 14 51 29 54 34 12 18 -6 39 -53
61 -47 22 -49 24 -56 73 -6 51 -19 77 -36 77 -5 0 -29 -18 -53 -40z m49 -73
c6 -39 11 -46 48 -64 l42 -20 -42 -21 c-37 -20 -42 -26 -49 -68 l-6 -46 -34
33 c-29 29 -37 31 -78 27 l-45 -5 21 40 c19 38 19 42 4 74 -23 48 -21 52 21
43 39 -9 55 -3 81 33 21 27 30 20 37 -26z"/>
<path d="M831 971 c-8 -5 -11 -16 -8 -24 8 -21 97 -28 105 -8 11 30 -62 54
-97 32z"/>
<path d="M745 910 c-19 -36 -19 -70 -1 -70 15 0 56 62 56 86 0 26 -39 15 -55
-16z"/>
<path d="M948 914 c-12 -11 18 -99 35 -102 13 -3 17 4 17 33 0 55 -28 93 -52
69z"/>
<path d="M744 795 c-13 -34 53 -97 75 -71 9 10 4 22 -22 50 -37 40 -45 43 -53
21z"/>
<path d="M946 782 c-3 -5 -26 -19 -52 -31 -51 -25 -54 -47 -4 -44 39 2 85 33
85 58 0 20 -20 31 -29 17z"/>
</g>
</svg>
